<?xml version="1.0" encoding="UTF-8" standalone="no"?>
<!DOCTYPE svg PUBLIC "-//W3C//DTD SVG 1.1//EN"
 "http://www.w3.org/Graphics/SVG/1.1/DTD/svg11.dtd">
<!-- Generated by graphviz version 2.43.0 (0)
 -->
<!-- Title: %3 Pages: 1 -->
<svg width="1178pt" height="521pt"
 viewBox="0.00 0.00 1178.42 521.16" xmlns="http://www.w3.org/2000/svg" xmlns:xlink="http://www.w3.org/1999/xlink">
<g id="graph0" class="graph" transform="scale(1 1) rotate(0) translate(4 517.16)">
<title>%3</title>
<polygon fill="white" stroke="transparent" points="-4,4 -4,-517.16 1174.42,-517.16 1174.42,4 -4,4"/>
<!-- M0 -->
<g id="node1" class="node">
<title>M0</title>
<polygon fill="none" stroke="black" points="719.94,-498.07 636.94,-498.07 636.94,-462.07 719.94,-462.07 719.94,-498.07"/>
<text text-anchor="start" x="644.94" y="-476.37" font-family="Noto Sans Mono" font-size="14.00">Prologue</text>
<text text-anchor="middle" x="628.44" y="-501.87" font-family="Noto Sans Mono" font-size="14.00">M0</text>
</g>
<!-- M3 -->
<g id="node2" class="node">
<title>M3</title>
<polygon fill="none" stroke="black" points="551.67,-498.16 460.67,-498.16 460.67,-462.16 551.67,-462.16 551.67,-498.16"/>
<text text-anchor="start" x="468.67" y="-476.46" font-family="Noto Sans Mono" font-size="14.00">r11 = $$1</text>
<text text-anchor="middle" x="452.17" y="-501.96" font-family="Noto Sans Mono" font-size="14.00">M3</text>
</g>
<!-- M0&#45;&gt;M3 -->
<g id="edge1" class="edge">
<title>M0&#45;&gt;M3</title>
<path fill="none" stroke="black" d="M636.74,-480.09C614.26,-480.1 586.22,-480.12 561.89,-480.13"/>
<polygon fill="black" stroke="black" points="561.72,-476.63 551.72,-480.14 561.72,-483.63 561.72,-476.63"/>
</g>
<!-- M6 -->
<g id="node3" class="node">
<title>M6</title>
<polygon fill="none" stroke="black" points="913.99,-393.17 707.99,-393.17 707.99,-325.17 913.99,-325.17 913.99,-393.17"/>
<text text-anchor="start" x="715.99" y="-377.97" font-family="Noto Sans Mono" font-size="14.00">rax = rdi &#45; $$2</text>
<text text-anchor="start" x="715.99" y="-362.97" font-family="Noto Sans Mono" font-size="14.00">(rbx = rdi &#45; $$3)</text>
<text text-anchor="start" x="715.99" y="-347.97" font-family="Noto Sans Mono" font-size="14.00">rcx = (rdi &#45; $$2) &amp; $$7</text>
<text text-anchor="start" x="715.99" y="-332.97" font-family="Noto Sans Mono" font-size="14.00">Kill rbx</text>
<text text-anchor="middle" x="699.49" y="-396.97" font-family="Noto Sans Mono" font-size="14.00">M6</text>
</g>
<!-- M0&#45;&gt;M6 -->
<g id="edge2" class="edge">
<title>M0&#45;&gt;M6</title>
<path fill="none" stroke="black" d="M698.28,-461.97C716.13,-445.69 742.99,-421.19 766.02,-400.18"/>
<polygon fill="black" stroke="black" points="768.63,-402.54 773.66,-393.21 763.92,-397.37 768.63,-402.54"/>
</g>
<!-- M59 -->
<g id="node4" class="node">
<title>M59</title>
<polygon fill="none" stroke="black" points="419.85,-377.75 328.85,-377.75 328.85,-339.75 419.85,-339.75 419.85,-377.75"/>
<text text-anchor="start" x="336.85" y="-362.55" font-family="Noto Sans Mono" font-size="14.00">rax = r11</text>
<text text-anchor="start" x="336.85" y="-347.55" font-family="Noto Sans Mono" font-size="14.00">retq</text>
<text text-anchor="middle" x="316.35" y="-381.55" font-family="Noto Sans Mono" font-size="14.00">M59</text>
</g>
<!-- M3&#45;&gt;M59 -->
<g id="edge3" class="edge">
<title>M3&#45;&gt;M59</title>
<path fill="none" stroke="black" d="M486.44,-461.99C464.18,-441.48 427.79,-407.97 402.54,-384.72"/>
<polygon fill="black" stroke="black" points="404.82,-382.06 395.09,-377.86 400.07,-387.2 404.82,-382.06"/>
</g>
<!-- M15 -->
<g id="node5" class="node">
<title>M15</title>
<polygon fill="none" stroke="black" points="759.9,-260.38 668.9,-260.38 668.9,-222.38 759.9,-222.38 759.9,-260.38"/>
<text text-anchor="start" x="676.9" y="-245.18" font-family="Noto Sans Mono" font-size="14.00">rdx = $$0</text>
<text text-anchor="start" x="676.9" y="-230.18" font-family="Noto Sans Mono" font-size="14.00">rsi = $$1</text>
<text text-anchor="middle" x="656.4" y="-264.18" font-family="Noto Sans Mono" font-size="14.00">M15</text>
</g>
<!-- M6&#45;&gt;M15 -->
<g id="edge4" class="edge">
<title>M6&#45;&gt;M15</title>
<path fill="none" stroke="black" d="M783.05,-325.1C768.31,-307.11 750.46,-285.35 736.66,-268.52"/>
<polygon fill="black" stroke="black" points="739.29,-266.21 730.24,-260.69 733.88,-270.64 739.29,-266.21"/>
</g>
<!-- M20 -->
<g id="node6" class="node">
<title>M20</title>
<polygon fill="none" stroke="black" points="1025.92,-287.84 876.92,-287.84 876.92,-219.84 1025.92,-219.84 1025.92,-287.84"/>
<text text-anchor="start" x="884.92" y="-272.64" font-family="Noto Sans Mono" font-size="14.00">rbx = rax &amp; $$&#45;8</text>
<text text-anchor="start" x="884.92" y="-257.64" font-family="Noto Sans Mono" font-size="14.00">r12 = $$0</text>
<text text-anchor="start" x="884.92" y="-242.64" font-family="Noto Sans Mono" font-size="14.00">r13 = $$1</text>
<text text-anchor="start" x="884.92" y="-227.64" font-family="Noto Sans Mono" font-size="14.00">r14 = rax &amp; $$&#45;8</text>
<text text-anchor="middle" x="864.42" y="-291.64" font-family="Noto Sans Mono" font-size="14.00">M20</text>
</g>
<!-- M6&#45;&gt;M20 -->
<g id="edge5" class="edge">
<title>M6&#45;&gt;M20</title>
<path fill="none" stroke="black" d="M856.58,-324.97C869.72,-315.12 884.16,-304.29 897.74,-294.11"/>
<polygon fill="black" stroke="black" points="900.16,-296.67 906.06,-287.87 895.96,-291.07 900.16,-296.67"/>
</g>
<!-- M29 -->
<g id="node7" class="node">
<title>M29</title>
<polygon fill="none" stroke="black" points="634.78,-144.88 551.78,-144.88 551.78,-108.88 634.78,-108.88 634.78,-144.88"/>
<text text-anchor="start" x="559.78" y="-123.18" font-family="Noto Sans Mono" font-size="14.00">Kill rax</text>
<text text-anchor="middle" x="539.28" y="-148.68" font-family="Noto Sans Mono" font-size="14.00">M29</text>
</g>
<!-- M15&#45;&gt;M29 -->
<g id="edge6" class="edge">
<title>M15&#45;&gt;M29</title>
<path fill="none" stroke="black" d="M694.13,-222.21C673.77,-202.97 642.28,-173.21 619.92,-152.06"/>
<polygon fill="black" stroke="black" points="622.09,-149.3 612.42,-144.98 617.28,-154.39 622.09,-149.3"/>
</g>
<!-- M60 -->
<g id="node8" class="node">
<title>M60</title>
<polygon fill="none" stroke="black" points="1071.91,-130.21 881.91,-130.21 881.91,-62.21 1071.91,-62.21 1071.91,-130.21"/>
<text text-anchor="start" x="889.91" y="-115.01" font-family="Noto Sans Mono" font-size="14.00">rax = 21*r12 + 13*r13</text>
<text text-anchor="start" x="889.91" y="-100.01" font-family="Noto Sans Mono" font-size="14.00">rbx = 34*r12 + 21*r13</text>
<text text-anchor="start" x="889.91" y="-85.01" font-family="Noto Sans Mono" font-size="14.00">r10 = r14 &#45; $$8</text>
<text text-anchor="start" x="889.91" y="-70.01" font-family="Noto Sans Mono" font-size="14.00">Kill r15</text>
<text text-anchor="middle" x="869.41" y="-134.01" font-family="Noto Sans Mono" font-size="14.00">M60</text>
</g>
<!-- M20&#45;&gt;M60 -->
<g id="edge7" class="edge">
<title>M20&#45;&gt;M60</title>
<path fill="none" stroke="black" d="M956.95,-219.64C960.71,-196.4 965.72,-165.44 969.77,-140.35"/>
<polygon fill="black" stroke="black" points="973.25,-140.78 971.39,-130.35 966.34,-139.66 973.25,-140.78"/>
</g>
<!-- M32 -->
<g id="node9" class="node">
<title>M32</title>
<polygon fill="none" stroke="black" points="513.22,-259.05 430.22,-259.05 430.22,-223.05 513.22,-223.05 513.22,-259.05"/>
<text text-anchor="start" x="438.22" y="-237.35" font-family="Noto Sans Mono" font-size="14.00">r11 = &#45;8</text>
<text text-anchor="middle" x="417.72" y="-262.85" font-family="Noto Sans Mono" font-size="14.00">M32</text>
</g>
<!-- M29&#45;&gt;M32 -->
<g id="edge8" class="edge">
<title>M29&#45;&gt;M32</title>
<path fill="none" stroke="black" d="M574.02,-144.97C553.57,-164.18 521.1,-194.67 498.24,-216.14"/>
<polygon fill="black" stroke="black" points="495.78,-213.65 490.89,-223.04 500.57,-218.75 495.78,-213.65"/>
</g>
<!-- M35 -->
<g id="node10" class="node">
<title>M35</title>
<polygon fill="none" stroke="black" points="439.2,-86.53 348.2,-86.53 348.2,-50.53 439.2,-50.53 439.2,-86.53"/>
<text text-anchor="start" x="356.2" y="-64.83" font-family="Noto Sans Mono" font-size="14.00">rdi = rdx</text>
<text text-anchor="middle" x="335.7" y="-90.33" font-family="Noto Sans Mono" font-size="14.00">M35</text>
</g>
<!-- M29&#45;&gt;M35 -->
<g id="edge9" class="edge">
<title>M29&#45;&gt;M35</title>
<path fill="none" stroke="black" d="M551.44,-114.65C521.71,-105.96 481.48,-94.2 449.09,-84.73"/>
<polygon fill="black" stroke="black" points="449.89,-81.31 439.3,-81.87 447.92,-88.03 449.89,-81.31"/>
</g>
<!-- M81 -->
<g id="node14" class="node">
<title>M81</title>
<polygon fill="none" stroke="black" points="1170.42,-54.21 1063.42,-54.21 1063.42,-1.21 1170.42,-1.21 1170.42,-54.21"/>
<text text-anchor="start" x="1071.42" y="-39.01" font-family="Noto Sans Mono" font-size="14.00">r12 = rbx</text>
<text text-anchor="start" x="1071.42" y="-24.01" font-family="Noto Sans Mono" font-size="14.00">r13 = rax</text>
<text text-anchor="start" x="1071.42" y="-9.01" font-family="Noto Sans Mono" font-size="14.00">(r14 = r10)</text>
<text text-anchor="middle" x="1050.92" y="-5.01" font-family="Noto Sans Mono" font-size="14.00">M81</text>
</g>
<!-- M60&#45;&gt;M81 -->
<g id="edge16" class="edge">
<title>M60&#45;&gt;M81</title>
<path fill="none" stroke="black" d="M1061.69,-62.15C1063.81,-61.07 1065.92,-60 1068,-58.93"/>
<polygon fill="black" stroke="black" points="1069.67,-62 1076.91,-54.26 1066.43,-55.8 1069.67,-62"/>
</g>
<!-- M88 -->
<g id="node15" class="node">
<title>M88</title>
<polygon fill="none" stroke="black" points="838.43,-87.92 747.43,-87.92 747.43,-49.92 838.43,-49.92 838.43,-87.92"/>
<text text-anchor="start" x="755.43" y="-72.72" font-family="Noto Sans Mono" font-size="14.00">rdx = rbx</text>
<text text-anchor="start" x="755.43" y="-57.72" font-family="Noto Sans Mono" font-size="14.00">&#45;8 = rax</text>
<text text-anchor="middle" x="734.93" y="-91.72" font-family="Noto Sans Mono" font-size="14.00">M88</text>
</g>
<!-- M60&#45;&gt;M88 -->
<g id="edge17" class="edge">
<title>M60&#45;&gt;M88</title>
<path fill="none" stroke="black" d="M881.87,-75.29C870.62,-73.66 859.44,-72.17 848.99,-70.92"/>
<polygon fill="black" stroke="black" points="849.14,-67.42 838.81,-69.76 848.35,-74.37 849.14,-67.42"/>
</g>
<!-- M32&#45;&gt;M59 -->
<g id="edge10" class="edge">
<title>M32&#45;&gt;M59</title>
<path fill="none" stroke="black" d="M456.72,-259.18C440.66,-278.59 415.01,-309.6 396.6,-331.86"/>
<polygon fill="black" stroke="black" points="393.85,-329.69 390.17,-339.62 399.24,-334.15 393.85,-329.69"/>
</g>
<!-- M42 -->
<g id="node11" class="node">
<title>M42</title>
<polygon fill="none" stroke="black" points="276.14,-122.23 144.14,-122.23 144.14,-69.23 276.14,-69.23 276.14,-122.23"/>
<text text-anchor="start" x="152.14" y="-107.03" font-family="Noto Sans Mono" font-size="14.00">rax = rdi + r8</text>
<text text-anchor="start" x="152.14" y="-92.03" font-family="Noto Sans Mono" font-size="14.00">rbx = r9 &#45; $$1</text>
<text text-anchor="start" x="152.14" y="-77.03" font-family="Noto Sans Mono" font-size="14.00">Kill r10</text>
<text text-anchor="middle" x="131.64" y="-126.03" font-family="Noto Sans Mono" font-size="14.00">M42</text>
</g>
<!-- M35&#45;&gt;M42 -->
<g id="edge11" class="edge">
<title>M35&#45;&gt;M42</title>
<path fill="none" stroke="black" d="M347.85,-75.33C329.23,-78.08 307.22,-81.34 286.32,-84.44"/>
<polygon fill="black" stroke="black" points="285.55,-81.02 276.17,-85.94 286.57,-87.94 285.55,-81.02"/>
</g>
<!-- M49 -->
<g id="node12" class="node">
<title>M49</title>
<polygon fill="none" stroke="black" points="279.87,-271.96 188.87,-271.96 188.87,-235.96 279.87,-235.96 279.87,-271.96"/>
<text text-anchor="start" x="196.87" y="-250.26" font-family="Noto Sans Mono" font-size="14.00">r11 = rdi</text>
<text text-anchor="middle" x="176.37" y="-275.76" font-family="Noto Sans Mono" font-size="14.00">M49</text>
</g>
<!-- M42&#45;&gt;M49 -->
<g id="edge12" class="edge">
<title>M42&#45;&gt;M49</title>
<path fill="none" stroke="black" d="M214.25,-122.57C218.65,-151.31 225.6,-196.72 230.07,-225.91"/>
<polygon fill="black" stroke="black" points="226.63,-226.52 231.6,-235.88 233.54,-225.46 226.63,-226.52"/>
</g>
<!-- M52 -->
<g id="node13" class="node">
<title>M52</title>
<polygon fill="none" stroke="black" points="116,-53 25,-53 25,0 116,0 116,-53"/>
<text text-anchor="start" x="33" y="-37.8" font-family="Noto Sans Mono" font-size="14.00">rdi = rax</text>
<text text-anchor="start" x="33" y="-22.8" font-family="Noto Sans Mono" font-size="14.00">r8 = rax</text>
<text text-anchor="start" x="33" y="-7.8" font-family="Noto Sans Mono" font-size="14.00">r9 = rbx</text>
<text text-anchor="middle" x="12.5" y="-56.8" font-family="Noto Sans Mono" font-size="14.00">M52</text>
</g>
<!-- M42&#45;&gt;M52 -->
<g id="edge13" class="edge">
<title>M42&#45;&gt;M52</title>
<path fill="none" stroke="black" d="M170.64,-69.16C156.65,-61.63 140.66,-53.59 125.61,-46.5"/>
<polygon fill="black" stroke="black" points="126.93,-43.26 116.39,-42.23 123.99,-49.61 126.93,-43.26"/>
</g>
<!-- M49&#45;&gt;M59 -->
<g id="edge14" class="edge">
<title>M49&#45;&gt;M59</title>
<path fill="none" stroke="black" d="M258.43,-271.98C281.05,-288.91 315.11,-314.41 340.47,-333.39"/>
<polygon fill="black" stroke="black" points="338.6,-336.37 348.7,-339.56 342.8,-330.76 338.6,-336.37"/>
</g>
<!-- M52&#45;&gt;M42 -->
<g id="edge15" class="edge">
<title>M52&#45;&gt;M42</title>
<path fill="none" stroke="black" d="M109.99,-53.07C117.84,-57.29 126.33,-61.68 134.92,-65.97"/>
<polygon fill="black" stroke="black" points="133.38,-69.11 143.89,-70.39 136.47,-62.83 133.38,-69.11"/>
</g>
<!-- M81&#45;&gt;M60 -->
<g id="edge18" class="edge">
<title>M81&#45;&gt;M60</title>
<path fill="none" stroke="black" d="M1063.11,-46.77C1055.77,-50.16 1048.19,-53.79 1040.7,-57.49"/>
<polygon fill="black" stroke="black" points="1038.67,-54.59 1031.29,-62.2 1041.8,-60.85 1038.67,-54.59"/>
</g>
<!-- M88&#45;&gt;M29 -->
<g id="edge19" class="edge">
<title>M88&#45;&gt;M29</title>
<path fill="none" stroke="black" d="M747.37,-82.15C716.84,-91.01 676.58,-102.7 644.87,-111.91"/>
<polygon fill="black" stroke="black" points="643.52,-108.65 634.89,-114.8 645.47,-115.37 643.52,-108.65"/>
</g>
<!-- M88&#45;&gt;M60 -->
<g id="edge20" class="edge">
<title>M88&#45;&gt;M60</title>
<path fill="none" stroke="black" d="M838.48,-81.69C848.71,-83.61 859.99,-85.53 871.55,-87.35"/>
<polygon fill="black" stroke="black" points="871.35,-90.86 881.76,-88.92 872.41,-83.94 871.35,-90.86"/>
</g>
</g>
</svg>
